# xmcd CD database file
#
# Track frame offsets:
#	150
#	18346
#	36158
#	48786
#	65058
#	82344
#	95812
#	111229
#	128984
#	147334
#	167040
#	179956
#	196714
#	213814
#	230705
#	252147
#
# Disc length: 3557 seconds
#
# Revision: 0
# Processed by: cddbd v1.5.1PL2 Copyright (c) Steve Scherf et al.
# Submitted via: CDex 1.51
#
DISCID=ee0de310
DTITLE=Trisha Yearwood  - Songbook (A Collection of Hits) 
DYEAR=1997
DGENRE=Country
TTITLE0=How Do I Live
TTITLE1=The Song Remembers When
TTITLE2=The Wrong Side Of Memphis
TTITLE3=In Another's Eyes 
TTITLE4=The Woman Before Me
TTITLE5=Perfect Love
TTITLE6=Thinking About You
TTITLE7=Down On My Knees
TTITLE8=She's In Love With A Boy
TTITLE9=Walkaway Joe
TTITLE10=Xxx's And Ooo's (An American Girl)
TTITLE11=Like We Never Had A Broken Heart
TTITLE12=Lover Is Forever
TTITLE13=Believe Me Baby I Lied
TTITLE14=On The Bus To St Cloud
TTITLE15=You Can Sleep While I Drive
EXTD=YEAR: 1997
EXTT0=
EXTT1=
EXTT2=
EXTT3=
EXTT4=
EXTT5=
EXTT6=
EXTT7=
EXTT8=
EXTT9=
EXTT10=
EXTT11=
EXTT12=
EXTT13=
EXTT14=
EXTT15=
PLAYORDER=
